<?xml version="1.0" encoding="UTF-8"?><svg id="BBF-Logo-Icon" xmlns="http://www.w3.org/2000/svg" viewBox="0 0 102 100"><path id="BBF-Logo-Icon-path" d="M77.4,46.58c-1.37,1.4-1.4,3.23-1.4,3.42,0,.24.03,1.92,1.3,3.31,1.12,1.23,2.55,1.52,3.41,1.68,1.47.27,3.13-.09,6.42-.64.92-.23,1.88-.35,2.87-.35h0c6.63,0,12,5.37,12,12h0c0,6.63-5.37,12-12,12h0s-.14,0-.28,0c-5.72-.13-10.45-4.26-11.5-9.71-.53-2.26-.55-4.37-2.03-6.19-.54-.66-1.07-1.05-1.43-1.26-.34-.21-1.46-.87-3.02-.8-1.19.06-2.03.52-2.21.62-1.84,1.04-2.36,3-2.49,3.61-.01.06-.09.42-.11.81-.13,2.62,2.29,5.25,4.1,7.57,1.52,1.95,2.43,3.47,3.59,5.39.34.56,2.96,4.98,3.3,8.47.07.76.06,1.51.06,1.51h0c0,6.63-5.37,12-12,12h0c-6.63,0-12-5.37-12-12h0c-.77-9.95,8.51-13.08,6.85-20.03-1.05-4.39-5.54-6.48-7.84-12.66-.68-1.83-1-3.57-1.01-5.31,0,0,0,0,0,0h0s0-.2.01-.43c0-.28.03-.56.06-.84.07-.74.21-1.71.49-2.74,1.7-6.12,7.36-9.43,8.35-14.45,1.32-6.75-7.27-9.11-6.89-18.92-.01-.21-.02-.42-.02-.62h0c0-6.63,5.37-12,12-12h0c6.63,0,12,5.37,12,12h0s.01.75-.06,1.51c-.33,3.49-2.96,7.91-3.3,8.47-1.16,1.92-2.07,3.44-3.59,5.39-1.8,2.32-4.23,4.94-4.1,7.57.02.39.09.75.11.81.13.61.64,2.56,2.49,3.61.17.1,1.02.56,2.21.62,1.56.07,2.67-.59,3.02-.8.36-.22.89-.6,1.43-1.26,1.48-1.82,1.5-3.94,2.03-6.19,1.05-5.44,5.78-9.57,11.5-9.71.14,0,.23,0,.28,0h0c6.63,0,12,5.37,12,12h0c0,6.63-5.37,12-12,12h0c-.16,0-.3,0-.45-.01-.86-.03-1.7-.15-2.51-.36-3.7-.71-5.89-1.07-7.94-.19-.98.42-1.52.95-1.71,1.14ZM50,50h0s0,0,0,0c0,1.74-.33,3.48-1.01,5.31-2.3,6.17-6.8,8.27-7.84,12.66-1.66,6.95,7.62,10.08,6.85,20.03h0c0,6.63-5.37,12-12,12h0c-6.63,0-12-5.37-12-12h0s-.01-.75.06-1.51c.33-3.49,2.96-7.91,3.3-8.47,1.16-1.92,2.07-3.44,3.59-5.39,1.8-2.32,4.23-4.94,4.1-7.57-.02-.39-.09-.75-.11-.81-.13-.61-.64-2.56-2.49-3.61-.17-.1-1.02-.56-2.21-.62-1.56-.07-2.67.59-3.02.8-.36.22-.89.6-1.43,1.26-1.48,1.82-1.5,3.94-2.03,6.19-1.05,5.44-5.78,9.57-11.5,9.71-.13,0-.23,0-.28,0h0c-6.63,0-12-5.37-12-12h0c0-6.63,5.37-12,12-12h0c.99,0,1.95.12,2.87.35,3.29.56,4.96.92,6.42.64.86-.16,2.29-.45,3.41-1.68,1.27-1.4,1.3-3.07,1.3-3.31,0-.19-.03-2.02-1.4-3.42-.19-.19-.73-.72-1.71-1.14-2.05-.88-4.24-.51-7.94.19-.81.2-1.65.33-2.51.36-.14,0-.29.01-.45.01h0c-6.63,0-12-5.37-12-12h0c0-6.63,5.37-12,12-12h0s.14,0,.28,0c5.72.13,10.45,4.26,11.5,9.71.53,2.26.55,4.37,2.03,6.19.54.66,1.07,1.05,1.43,1.26.34.21,1.46.87,3.02.8,1.19-.06,2.03-.52,2.21-.62,1.84-1.04,2.36-3,2.49-3.61.01-.06.09-.42.11-.81.13-2.62-2.29-5.25-4.1-7.57-1.52-1.95-2.43-3.47-3.59-5.39-.34-.56-2.96-4.98-3.3-8.47-.07-.76-.06-1.51-.06-1.51h0c0-6.63,5.37-12,12-12h0c6.63,0,12,5.37,12,12h0c0,.21,0,.42-.02.62.38,9.81-8.21,12.17-6.89,18.92.99,5.03,6.65,8.34,8.35,14.45.28,1.02.42,2,.49,2.74.03.28.05.56.06.84,0,.22.01.38.01.43Z"/></svg>