<?xml version="1.0" encoding="UTF-8"?><svg id="BBF-Logo-Name-H" xmlns="http://www.w3.org/2000/svg" viewBox="0 0 705.66 78.27"><path id="BBF-Logo-Name-H-path" d="M10.06,55.27v5.95H0V0h10.06v23.44c1.84-3.41,6.82-6.82,13.03-6.82,11.98,0,19.5,9.79,19.5,22.74s-7.17,22.74-19.15,22.74c-6.12,0-11.46-3.41-13.38-6.82ZM32.53,39.26c0-9.18-4.63-14.43-10.76-14.43h-.7c-5.68,0-11.02,5.25-11.02,14.52s5.33,14.52,11.02,14.52h.7c6.12,0,10.76-5.33,10.76-14.6ZM48.01,17.49h9.88v9.18c1.75-6.12,6.47-9.62,12.68-9.62h2.97v9.44h-3.76c-7.61,0-11.72,4.28-11.72,12.24v22.47h-10.06V17.49ZM73.63,49.23c0-8.75,6.65-13.29,16-14.08l11.46-.96v-1.22c0-4.81-3.06-8.13-7.96-8.13h-.7c-4.55,0-7.52,2.62-7.87,5.86h-10.06c.7-8.13,7.87-14.08,18.28-14.08s18.1,6.03,18.1,16.09v18.89c0,3.41.09,7,.44,9.62h-9.44c-.26-1.22-.44-3.67-.52-6.03-2.36,4.02-7.52,6.91-13.38,6.91-8.13,0-14.34-5.16-14.34-12.85ZM89.72,53.87h.7c5.42,0,10.67-4.29,10.67-9.62v-2.62l-10.14.96c-4.02.35-7.35,2.36-7.35,6.03,0,3.06,2.62,5.25,6.12,5.25ZM118.4,17.49h10.06v6.38c2.62-4.29,7.35-7.26,13.55-7.26,10.32,0,15.48,6.65,15.48,16.09v28.51h-10.06v-27.02c0-5.86-2.62-9.36-7.78-9.36h-.7c-5.6,0-10.49,4.9-10.49,11.98v24.4h-10.06V17.49ZM162.38,39.35c0-12.94,7.61-22.74,19.59-22.74,6.12,0,11.02,3.24,12.94,6.65V0h10.06v61.21h-10.06v-5.86c-1.92,3.41-7.17,6.73-13.38,6.73-11.89,0-19.15-9.88-19.15-22.74ZM194.91,39.35c0-9.27-5.25-14.52-10.93-14.52h-.7c-6.12,0-10.84,5.25-10.84,14.43s4.72,14.6,10.84,14.6h.7c5.68,0,10.93-5.25,10.93-14.52ZM235.04,55.27v5.95h-10.06V0h10.06v23.44c1.84-3.41,6.82-6.82,13.03-6.82,11.98,0,19.5,9.79,19.5,22.74s-7.17,22.74-19.15,22.74c-6.12,0-11.46-3.41-13.38-6.82ZM257.52,39.26c0-9.18-4.63-14.43-10.76-14.43h-.7c-5.68,0-11.02,5.25-11.02,14.52s5.33,14.52,11.02,14.52h.7c6.12,0,10.76-5.33,10.76-14.6ZM272.99,17.49h9.88v9.18c1.75-6.12,6.47-9.62,12.68-9.62h2.97v9.44h-3.76c-7.61,0-11.72,4.28-11.72,12.24v22.47h-10.06V17.49ZM298.62,49.23c0-8.75,6.65-13.29,16-14.08l11.46-.96v-1.22c0-4.81-3.06-8.13-7.96-8.13h-.7c-4.55,0-7.52,2.62-7.87,5.86h-10.06c.7-8.13,7.87-14.08,18.28-14.08s18.1,6.03,18.1,16.09v18.89c0,3.41.09,7,.44,9.62h-9.45c-.26-1.22-.44-3.67-.52-6.03-2.36,4.02-7.52,6.91-13.38,6.91-8.13,0-14.34-5.16-14.34-12.85ZM314.71,53.87h.7c5.42,0,10.67-4.29,10.67-9.62v-2.62l-10.14.96c-4.02.35-7.35,2.36-7.35,6.03,0,3.06,2.62,5.25,6.12,5.25ZM342.95,0h10.93v10.84h-10.93V0ZM343.39,17.49h10.06v43.72h-10.06V17.49ZM361.4,17.49h10.06v6.38c2.62-4.29,7.35-7.26,13.55-7.26,10.32,0,15.48,6.65,15.48,16.09v28.51h-10.06v-27.02c0-5.86-2.62-9.36-7.78-9.36h-.7c-5.6,0-10.49,4.9-10.49,11.98v24.4h-10.06V17.49ZM435.81,0h12.33v8.48h-8.48c-3.41,0-4.29.87-4.29,4.29v4.72h10.58v8.31h-10.58v35.42h-10.06V25.8h-9.18v-8.31h9.18v-7.08c0-6.82,3.59-10.41,10.49-10.41ZM446.13,39.35c0-13.29,8.92-22.74,21.42-22.74s21.51,9.44,21.51,22.74-8.92,22.74-21.51,22.74-21.42-9.44-21.42-22.74ZM478.92,39.35c0-9.18-4.46-14.52-11.02-14.52h-.7c-6.47,0-11.02,5.33-11.02,14.52s4.55,14.52,11.02,14.52h.7c6.56,0,11.02-5.33,11.02-14.52ZM493.96,45.82v-28.33h10.05v26.85c0,6.3,2.62,9.53,7.52,9.53h.7c5.25,0,9.88-5.16,9.88-12.33v-24.05h10.06v43.72h-10.06v-7.08c-2.28,4.55-7,7.96-13.29,7.96-10.06,0-14.87-6.82-14.87-16.26ZM540.04,17.49h10.06v6.38c2.62-4.29,7.35-7.26,13.55-7.26,10.32,0,15.48,6.65,15.48,16.09v28.51h-10.06v-27.02c0-5.86-2.62-9.36-7.78-9.36h-.7c-5.6,0-10.49,4.9-10.49,11.98v24.4h-10.06V17.49ZM584.02,39.35c0-12.94,7.61-22.74,19.59-22.74,6.12,0,11.02,3.24,12.94,6.65V0h10.06v61.21h-10.06v-5.86c-1.92,3.41-7.17,6.73-13.38,6.73-11.89,0-19.15-9.88-19.15-22.74ZM616.55,39.35c0-9.27-5.25-14.52-10.93-14.52h-.7c-6.12,0-10.84,5.25-10.84,14.43s4.72,14.6,10.84,14.6h.7c5.69,0,10.93-5.25,10.93-14.52ZM634.56,17.49h9.88v9.18c1.75-6.12,6.47-9.62,12.68-9.62h2.97v9.44h-3.76c-7.61,0-11.72,4.28-11.72,12.24v22.47h-10.06V17.49ZM661.58,69.43h11.89c3.41,0,4.28-.87,4.28-4.2v-6.3l-18.8-41.45h11.11l12.59,29.03,12.07-29.03h10.93l-18.36,41.01v9.27c0,6.91-3.59,10.49-10.41,10.49h-15.3v-8.83Z"/></svg>