<?xml version="1.0" encoding="UTF-8"?><svg id="BBF-Logo-Name-Circle" xmlns="http://www.w3.org/2000/svg" viewBox="0 0 170.35 171.11"><path id="BBF-Logo-Name-Circle-path" d="M105.46,10.83l-.34,1.1-1.87-.57,3.48-11.36,1.87.57-1.33,4.35c.54-.53,1.65-.88,2.81-.53,2.22.68,3.06,2.93,2.33,5.33-.73,2.39-2.62,3.81-4.85,3.13-1.14-.35-1.93-1.28-2.1-2.03ZM110.54,9.14c.52-1.7-.04-2.94-1.18-3.29l-.13-.04c-1.06-.32-2.34.35-2.87,2.07-.53,1.72.16,3,1.22,3.32l.13.04c1.14.35,2.3-.38,2.83-2.1ZM114.93,6.24l1.77.73-.68,1.65c.77-.97,1.88-1.25,2.99-.79l.53.22-.7,1.7-.67-.28c-1.37-.56-2.42-.1-3.01,1.33l-1.67,4.04-1.81-.75,3.24-7.85ZM117,13.72c.78-1.51,2.33-1.7,4.01-1.01l2.06.85.11-.21c.43-.83.2-1.68-.65-2.11l-.12-.06c-.78-.4-1.53-.22-1.88.31l-1.74-.89c.84-1.34,2.61-1.73,4.41-.8,1.87.96,2.59,2.65,1.69,4.39l-1.68,3.26c-.3.59-.61,1.22-.78,1.7l-1.63-.84c.06-.23.25-.67.45-1.09-.77.48-1.91.52-2.92,0-1.4-.72-2.02-2.17-1.33-3.49ZM119.36,15.95l.12.06c.94.48,2.22.21,2.7-.71l.23-.45-1.84-.74c-.73-.3-1.48-.25-1.8.39-.27.53-.01,1.14.59,1.45ZM127.9,12.5l1.63,1.08-.68,1.03c.88-.41,1.97-.39,2.97.28,1.67,1.11,1.79,2.73.78,4.26l-3.05,4.62-1.63-1.08,2.9-4.38c.63-.95.58-1.8-.26-2.35l-.11-.08c-.91-.6-2.22-.33-2.98.82l-2.61,3.95-1.63-1.08,4.68-7.08ZM132.67,20.78c1.62-1.92,3.97-2.42,5.75-.93.91.77,1.23,1.86,1.09,2.61l2.91-3.45,1.49,1.26-7.66,9.09-1.49-1.26.73-.87c-.71.27-1.91.1-2.83-.67-1.77-1.49-1.61-3.86,0-5.77ZM137.5,24.85c1.16-1.38,1.04-2.81.19-3.52l-.1-.09c-.91-.77-2.27-.58-3.42.79-1.16,1.38-1.13,2.76-.22,3.53l.1.09c.84.71,2.28.59,3.44-.79ZM140.85,32.43l-.87.76-1.29-1.46,8.92-7.86,1.29,1.46-3.41,3.01c.73-.17,1.87.12,2.67,1.02,1.54,1.75,1.08,4.1-.81,5.76-1.87,1.65-4.23,1.88-5.77.13-.79-.89-.97-2.11-.72-2.83ZM146.07,33.65c1.34-1.18,1.51-2.53.72-3.42l-.09-.1c-.73-.83-2.18-.93-3.53.26s-1.43,2.64-.7,3.47l.09.1c.79.89,2.16.88,3.51-.31ZM151.33,33.48l1.13,1.55-1.44,1.05c1.16-.43,2.25-.08,2.96.89l.34.47-1.48,1.08-.43-.59c-.87-1.19-2.01-1.35-3.26-.44l-3.53,2.57-1.15-1.58,6.87-5ZM149.18,40.93c1.45-.88,2.87-.24,3.95,1.24l1.31,1.8.2-.12c.8-.48,1.04-1.33.55-2.14l-.07-.12c-.46-.75-1.19-.98-1.76-.72l-1.01-1.67c1.42-.7,3.13-.11,4.18,1.62,1.09,1.8.82,3.61-.85,4.62l-3.13,1.9c-.57.34-1.15.72-1.55,1.04l-.95-1.57c.18-.17.57-.44.95-.69-.91.01-1.9-.55-2.49-1.52-.82-1.35-.59-2.9.69-3.67ZM150.03,44.07l.07.12c.55.9,1.79,1.34,2.67.8l.44-.26-1.18-1.59c-.46-.63-1.13-.98-1.74-.61-.51.31-.61.96-.25,1.54ZM158.95,45.42l.89,1.74-7.56,3.87-.89-1.74,7.56-3.87ZM161.93,43.8l.97,1.89-1.88.96-.97-1.89,1.88-.96ZM160.7,48.77l.75,1.8-1.15.48c.96.15,1.85.78,2.31,1.89.77,1.85-.04,3.27-1.73,3.98l-5.11,2.12-.75-1.8,4.85-2.01c1.05-.44,1.48-1.17,1.1-2.09l-.05-.13c-.42-1-1.66-1.52-2.93-.99l-4.38,1.82-.75-1.8,7.84-3.26ZM169.26,62.91l.61,2.31-1.59.42-.42-1.59c-.17-.64-.38-.76-1.02-.59l-.89.23.52,1.99-1.56.41-.52-1.99-6.65,1.75-.5-1.89,6.65-1.75-.46-1.72,1.56-.41.46,1.72,1.33-.35c1.28-.34,2.13.16,2.47,1.45ZM162.42,66.72c2.54-.44,4.65.96,5.06,3.35.41,2.41-1.1,4.43-3.65,4.86s-4.65-.96-5.06-3.37c-.41-2.39,1.1-4.41,3.65-4.85ZM163.5,73c1.76-.3,2.63-1.33,2.42-2.58l-.02-.13c-.21-1.24-1.38-1.93-3.14-1.63-1.76.3-2.63,1.35-2.42,2.59l.02.13c.22,1.26,1.38,1.93,3.14,1.63ZM162.66,75.96l5.49-.32.11,1.95-5.2.3c-1.22.07-1.82.62-1.76,1.56v.14c.07,1.02,1.12,1.86,2.51,1.78l4.66-.27.11,1.95-8.48.49-.11-1.95,1.37-.08c-.91-.39-1.62-1.27-1.69-2.49-.11-1.95,1.16-2.96,2.99-3.06ZM168.59,85.03l-.1,1.95-1.24-.07c.8.55,1.33,1.5,1.27,2.7-.11,2-1.45,2.93-3.28,2.83l-5.53-.29.1-1.95,5.24.28c1.14.06,1.84-.41,1.89-1.41v-.13c.06-1.09-.83-2.08-2.21-2.16l-4.73-.25.1-1.95,8.48.45ZM163.88,93.31c2.48.42,4.1,2.19,3.72,4.49-.2,1.17-.98,2-1.69,2.26l4.45.75-.33,1.93-11.72-1.99.33-1.92,1.12.19c-.59-.48-1.06-1.59-.85-2.78.39-2.28,2.51-3.34,4.97-2.93ZM162.82,99.54c1.77.3,2.95-.53,3.13-1.62l.02-.13c.2-1.17-.65-2.25-2.41-2.54-1.77-.3-2.95.43-3.15,1.6l-.02.13c-.18,1.09.65,2.26,2.42,2.56ZM166.19,104.04l-.5,1.85-1.72-.46c1.06.64,1.48,1.7,1.17,2.86l-.15.56-1.77-.48.19-.71c.38-1.43-.21-2.41-1.71-2.82l-4.22-1.13.51-1.89,8.2,2.21ZM155.29,105.94l-.8,2.17c-.23.62-.13.84.48,1.06l1.15.42,8.81-.65-.74,2.02-6.13.35,4.48,4.14-.73,1.99-6.24-6.09-1.69-.62c-1.26-.46-1.67-1.36-1.21-2.6l1.03-2.79,1.61.59ZM145.85,135.54l9.01-13.17.8.55-9.02,13.17-.8-.55ZM138.1,138.95l-.78-.85,1.43-1.32,8.06,8.73-1.43,1.32-3.09-3.34c.19.73-.07,1.87-.96,2.69-1.71,1.58-4.07,1.17-5.77-.67-1.69-1.83-1.97-4.19-.27-5.76.87-.81,2.08-1.02,2.81-.79ZM137,144.19c1.21,1.31,2.56,1.45,3.43.64l.1-.09c.81-.75.88-2.2-.34-3.52s-2.67-1.37-3.48-.62l-.1.09c-.87.81-.83,2.18.39,3.5ZM137.3,149.44l-1.52,1.17-1.08-1.42c.45,1.15.14,2.25-.82,2.98l-.46.35-1.11-1.46.58-.44c1.17-.9,1.3-2.04.36-3.27l-2.65-3.47,1.55-1.19,5.16,6.75ZM129.8,147.47c.91,1.43.3,2.87-1.15,3.98l-1.77,1.35.13.2c.5.79,1.35,1.01,2.15.5l.11-.07c.74-.48.96-1.22.68-1.78l1.65-1.05c.74,1.4.18,3.13-1.52,4.21-1.77,1.13-3.59.9-4.64-.74l-1.97-3.09c-.36-.56-.75-1.14-1.08-1.53l1.55-.99c.17.17.46.56.72.93-.03-.91.51-1.92,1.47-2.53,1.33-.85,2.89-.65,3.69.61ZM126.68,148.4l-.11.07c-.89.57-1.3,1.82-.74,2.69l.27.43,1.56-1.22c.62-.48.96-1.15.57-1.76-.32-.5-.98-.58-1.55-.22ZM125.38,157.51l-1.75.87-.55-1.11c-.09.97-.65,1.9-1.73,2.43-1.79.89-3.27.18-4.08-1.46l-2.46-4.96,1.75-.87,2.33,4.7c.51,1.02,1.26,1.4,2.16.96l.12-.06c.97-.48,1.4-1.76.79-2.99l-2.1-4.24,1.75-.87,3.77,7.61ZM115.85,157.48c.85,2.37.1,4.66-2.09,5.44-1.12.4-2.23.13-2.8-.37l1.52,4.25-1.84.66-4.01-11.19,1.84-.66.38,1.07c.13-.75.87-1.7,2.01-2.11,2.17-.78,4.15.55,4.99,2.9ZM109.9,159.6c.61,1.69,1.91,2.31,2.95,1.94l.13-.04c1.12-.4,1.64-1.67,1.04-3.35-.61-1.7-1.82-2.36-2.94-1.96l-.13.05c-1.04.37-1.66,1.67-1.05,3.37ZM100.92,158.85l-.21-1.13,1.92-.36,2.18,11.69-1.92.36-.83-4.47c-.23.72-1.06,1.54-2.24,1.77-2.29.43-4.07-1.17-4.53-3.65-.46-2.45.56-4.6,2.85-5.02,1.17-.22,2.31.24,2.8.83ZM97.2,162.7c.33,1.75,1.4,2.59,2.57,2.37l.13-.03c1.08-.2,1.92-1.39,1.59-3.16s-1.54-2.58-2.62-2.38l-.13.03c-1.17.22-1.86,1.4-1.53,3.17ZM94.63,167.3l-1.91.17-.16-1.78c-.23,1.21-1.08,1.97-2.28,2.08l-.57.05-.17-1.83.73-.07c1.47-.13,2.19-1.03,2.05-2.57l-.39-4.34,1.94-.18.76,8.45ZM89.34,161.6c.03,1.7-1.25,2.6-3.06,2.78l-2.22.22v.24c.02.93.62,1.57,1.58,1.55h.14c.88-.02,1.45-.54,1.51-1.17l1.95-.03c-.11,1.58-1.48,2.76-3.5,2.79-2.11.03-3.53-1.11-3.57-3.07l-.06-3.67c-.01-.66-.04-1.36-.12-1.87l1.83-.03c.05.24.1.71.12,1.17.45-.79,1.44-1.37,2.58-1.38,1.58-.03,2.8.96,2.83,2.45ZM86.2,160.75h-.14c-1.05.02-2.06.87-2.04,1.9v.51s1.98-.22,1.98-.22c.78-.08,1.42-.48,1.41-1.19,0-.59-.53-1.01-1.21-1ZM80.32,171.11l-2.12-.14.14-2.1,2.12.14-.14,2.1ZM80.46,167.72l-1.95-.13.55-8.48,1.95.13-.55,8.48ZM76.71,167.51l-1.93-.28.18-1.23c-.62.75-1.61,1.19-2.81,1.02-1.98-.28-2.79-1.7-2.53-3.52l.79-5.48,1.93.28-.75,5.2c-.16,1.13.25,1.87,1.24,2.01l.13.02c1.08.15,2.15-.65,2.35-2.01l.67-4.69,1.93.28-1.21,8.41ZM60.17,167.64l-2.3-.66.45-1.58,1.58.45c.64.18.85.07,1.03-.57l.25-.88-1.98-.56.44-1.55,1.98.57,1.89-6.61,1.88.54-1.89,6.61,1.71.49-.44,1.55-1.71-.49-.38,1.32c-.36,1.27-1.23,1.75-2.52,1.38ZM60.4,159.82c-.93,2.41-3.2,3.5-5.47,2.63-2.28-.88-3.24-3.21-2.32-5.62.93-2.41,3.2-3.5,5.48-2.62,2.27.87,3.23,3.2,2.3,5.61ZM54.45,157.54c-.64,1.67-.2,2.94.99,3.4l.13.05c1.17.45,2.37-.2,3.01-1.86.64-1.67.19-2.95-.99-3.4l-.13-.05c-1.19-.46-2.37.2-3.01,1.86ZM52.34,155.3l-2.54,4.88-1.73-.9,2.4-4.62c.56-1.08.4-1.88-.44-2.32l-.12-.06c-.9-.47-2.16,0-2.81,1.24l-2.15,4.14-1.73-.9,3.91-7.53,1.73.9-.63,1.22c.8-.58,1.92-.74,3-.18,1.73.9,1.95,2.51,1.1,4.13ZM41.49,155.73l-1.62-1.09.69-1.03c-.89.41-1.97.37-2.97-.3-1.66-1.12-1.77-2.75-.75-4.27l3.09-4.59,1.62,1.09-2.93,4.35c-.63.94-.59,1.79.24,2.35l.11.08c.9.61,2.22.35,2.99-.79l2.64-3.93,1.62,1.09-4.74,7.04ZM36.81,147.44c-1.63,1.91-3.99,2.4-5.76.88-.9-.77-1.22-1.87-1.07-2.61l-2.93,3.43-1.48-1.27,7.72-9.04,1.48,1.27-.74.87c.71-.26,1.91-.09,2.82.69,1.76,1.5,1.58,3.87-.04,5.77ZM32.01,143.34c-1.17,1.37-1.06,2.8-.22,3.52l.1.09c.9.77,2.26.59,3.42-.76,1.17-1.37,1.15-2.75.24-3.52l-.1-.09c-.84-.72-2.28-.6-3.44.76ZM26.44,143.95l-1.34-1.38,1.28-1.24c-1.09.58-2.22.4-3.06-.47l-.4-.41,1.32-1.28.51.52c1.03,1.06,2.18,1.05,3.29-.02l3.13-3.04,1.36,1.4-6.1,5.91ZM30.38,133.6l-1.45-1.79c-.42-.51-.66-.54-1.16-.13l-.95.77-3.95,7.91-1.36-1.67,2.84-5.45-5.85,1.73-1.34-1.65,8.43-2.25,1.4-1.13c1.04-.85,2.02-.74,2.85.29l1.87,2.31-1.33,1.08ZM9.73,110.35l6.72,14.48-.88.41-6.72-14.48.88-.41ZM10.79,101.95l1.13-.24.4,1.91-11.63,2.45-.4-1.91,4.45-.94c-.72-.21-1.57-1.02-1.82-2.2-.48-2.28,1.08-4.1,3.54-4.61,2.44-.51,4.61.45,5.09,2.73.24,1.16-.19,2.31-.76,2.81ZM6.85,98.32c-1.74.37-2.56,1.46-2.31,2.62l.03.13c.23,1.08,1.44,1.88,3.2,1.51,1.76-.37,2.55-1.59,2.32-2.67l-.03-.13c-.24-1.16-1.44-1.83-3.21-1.46ZM2.18,95.85l-.22-1.91,1.77-.2c-1.22-.2-2-1.04-2.14-2.24l-.06-.57,1.82-.21.08.73c.17,1.47,1.08,2.17,2.62,1.99l4.34-.49.22,1.94-8.44.96ZM7.73,90.45c-1.7.05-2.62-1.21-2.82-3.02l-.25-2.22h-.24c-.93.04-1.56.65-1.53,1.6v.14c.03.88.56,1.44,1.19,1.49l.06,1.95c-1.58-.09-2.78-1.45-2.84-3.47-.06-2.1,1.07-3.55,3.02-3.6l3.67-.11c.66-.02,1.36-.06,1.86-.14l.05,1.83c-.24.06-.71.11-1.17.14.79.43,1.38,1.42,1.42,2.56.05,1.58-.92,2.81-2.41,2.86ZM8.54,87.3v-.14c-.04-1.05-.9-2.05-1.93-2.01l-.51.02.25,1.96c.09.78.5,1.41,1.21,1.39.59-.02,1-.54.98-1.22ZM1.37,81.5l.15-1.95,1.24.1c-.79-.57-1.3-1.53-1.2-2.73.15-2,1.52-2.9,3.35-2.76l5.52.43-.15,1.95-5.23-.41c-1.13-.09-1.85.37-1.93,1.37v.14c-.09,1.08.78,2.11,2.15,2.21l4.73.37-.15,1.95-8.47-.66ZM6.29,73.34c-2.47-.48-4.05-2.29-3.6-4.58.23-1.17,1.03-1.98,1.75-2.22l-4.43-.86.37-1.92,11.66,2.27-.37,1.92-1.12-.22c.58.49,1.02,1.62.79,2.8-.44,2.27-2.59,3.28-5.04,2.8ZM7.5,67.14c-1.77-.34-2.96.46-3.17,1.54l-.03.13c-.23,1.17.6,2.26,2.35,2.6,1.77.34,2.96-.36,3.19-1.52l.03-.13c.21-1.08-.59-2.28-2.36-2.62ZM12.75,59.79l1.08.4-.67,1.83-11.15-4.1.67-1.83,4.27,1.57c-.5-.56-.79-1.7-.37-2.83.8-2.18,3.09-2.9,5.45-2.03,2.34.86,3.66,2.83,2.86,5.01-.41,1.12-1.39,1.86-2.14,1.98ZM11.34,54.63c-1.67-.62-2.94-.12-3.35.99l-.05.13c-.38,1.04.22,2.36,1.91,2.98,1.69.62,3,0,3.38-1.03l.05-.13c.41-1.12-.25-2.32-1.94-2.94ZM8.68,50.09l.83-1.73,1.61.77c-.93-.82-1.14-1.94-.62-3.03l.25-.52,1.65.79-.32.66c-.64,1.33-.23,2.41,1.16,3.08l3.94,1.89-.84,1.76-7.66-3.67ZM16.26,48.43c-1.46-.86-1.57-2.42-.78-4.06l.97-2.01-.21-.12c-.8-.47-1.66-.29-2.14.53l-.07.12c-.45.76-.3,1.52.21,1.89l-.99,1.68c-1.29-.92-1.58-2.7-.56-4.44,1.07-1.81,2.79-2.44,4.47-1.45l3.16,1.86c.57.34,1.18.67,1.65.87l-.93,1.58c-.23-.08-.66-.29-1.06-.51.44.79.42,1.94-.16,2.92-.8,1.36-2.27,1.89-3.56,1.13ZM18.62,46.2l.07-.12c.53-.91.33-2.21-.56-2.73l-.44-.26-.84,1.79c-.34.71-.33,1.46.29,1.82.51.3,1.14.08,1.48-.51ZM12.75,35.84l1.21-1.75,1.73,1.2-1.21,1.75-1.73-1.2ZM15.59,37.7l1.11-1.61,6.99,4.82-1.11,1.61-6.99-4.82ZM17.7,34.59l1.23-1.52.96.78c-.33-.92-.2-2,.56-2.93,1.26-1.56,2.9-1.52,4.32-.37l4.3,3.49-1.23,1.52-4.07-3.31c-.88-.72-1.73-.75-2.36.03l-.09.11c-.68.84-.54,2.18.52,3.05l3.68,2.98-1.23,1.52-6.59-5.35ZM26.05,20.32l1.75-1.64,1.13,1.2-1.2,1.13c-.48.45-.49.69-.04,1.18l.63.67,1.5-1.41,1.11,1.18-1.5,1.41,4.72,5.01-1.42,1.34-4.72-5.01-1.3,1.22-1.11-1.18,1.3-1.22-.94-1c-.91-.97-.88-1.95.1-2.87ZM32.68,24.51c-1.6-2.03-1.37-4.54.54-6.04,1.92-1.51,4.41-1.14,6.01.88,1.6,2.03,1.37,4.54-.55,6.05-1.91,1.5-4.4,1.13-6-.9ZM37.68,20.58c-1.1-1.4-2.42-1.68-3.42-.89l-.11.08c-.99.78-1.04,2.14.06,3.54,1.1,1.4,2.44,1.67,3.42.89l.11-.08c1-.79,1.04-2.14-.06-3.54ZM40.68,19.9l-2.9-4.68,1.66-1.03,2.75,4.43c.65,1.04,1.41,1.3,2.22.8l.12-.07c.87-.54,1.1-1.86.37-3.05l-2.46-3.97,1.66-1.03,4.48,7.22-1.66,1.03-.73-1.17c.09.98-.34,2.03-1.38,2.68-1.66,1.03-3.15.4-4.12-1.16ZM45.8,10.37l1.76-.84.53,1.12c.1-.97.68-1.88,1.77-2.4,1.81-.86,3.27-.12,4.05,1.53l2.37,5-1.76.84-2.25-4.74c-.49-1.03-1.24-1.42-2.14-.99l-.12.06c-.98.47-1.43,1.73-.84,2.97l2.03,4.28-1.76.84-3.64-7.67ZM55.34,10.57c-.81-2.38-.02-4.66,2.19-5.4,1.13-.38,2.23-.09,2.79.42l-1.45-4.28,1.85-.63,3.81,11.26-1.85.63-.36-1.08c-.14.75-.9,1.69-2.04,2.07-2.19.74-4.14-.62-4.94-2.99ZM61.33,8.54c-.58-1.7-1.87-2.34-2.91-1.99l-.13.04c-1.13.38-1.67,1.64-1.1,3.33.58,1.71,1.78,2.39,2.9,2.01l.13-.04c1.05-.35,1.68-1.65,1.11-3.35ZM63.68,3.44l1.87-.44.41,1.74c.06-1.23.79-2.11,1.97-2.38l.56-.13.42,1.78-.71.17c-1.44.34-2.02,1.33-1.67,2.84l1,4.25-1.9.45-1.95-8.26ZM70.55,12.13l2.29-.33c.66-.09.8-.29.71-.93l-.17-1.21-4.76-7.45,2.14-.31,3.22,5.24,1.52-5.92,2.1-.3-2.4,8.39.26,1.78c.19,1.33-.4,2.12-1.71,2.3l-2.94.42-.24-1.7ZM98.23,5.79l-15.93-1.05.06-.97,15.93,1.05-.06.97Z"/></svg>