<?xml version="1.0" encoding="UTF-8"?><svg id="forms-2" xmlns="http://www.w3.org/2000/svg" viewBox="0 0 165 165"><defs><style>.cls-1{stroke-dasharray:0 5;stroke-linecap:round;stroke-linejoin:round;}.cls-1,.cls-2{fill:none;stroke:#000;stroke-width:2px;}.cls-2{stroke-miterlimit:10;}</style></defs><path id="L-P-UP" class="cls-1" d="M129.67,62.21H35.33c-5.57,0-7.76-7.49-3.13-10.7h0c30.44-21.1,70.16-21.1,100.6,0h0c4.63,3.21,2.44,10.7-3.13,10.7Z"/><path id="L-P-Down" class="cls-1" d="M129.67,102.75H35.33c-5.57,0-7.76,7.49-3.13,10.7h0c30.44,21.1,70.16,21.1,100.6,0h0c4.63-3.21,2.44-10.7-3.13-10.7Z"/><path id="L-N-Down-2" class="cls-2" d="M114.82,93.66H50.18c-3.82,0-5.32,5.13-2.15,7.33h0c20.86,14.46,48.07,14.46,68.94,0h0c3.17-2.2,1.67-7.33-2.15-7.33Z"/><path id="L-N-Up-2" class="cls-2" d="M114.82,70.78H50.18c-3.82,0-5.32-5.13-2.15-7.33h0c20.86-14.46,48.07-14.46,68.94,0h0c3.17,2.2,1.67,7.33-2.15,7.33Z"/><path id="L-N-Down-1" class="cls-2" d="M143.73,118.44H21.27c-7.23,0-10.08,9.72-4.06,13.88h0c39.52,27.39,91.07,27.39,130.59,0h0c6.01-4.17,3.17-13.88-4.06-13.88Z"/><path id="L-N-UP-1" class="cls-2" d="M143.73,46.56H21.27c-7.23,0-10.08-9.72-4.06-13.88h0c39.52-27.39,91.07-27.39,130.59,0h0c6.01,4.17,3.17,13.88-4.06,13.88Z"/><circle id="Point" cx="82.5" cy="82.65" r="18.01"/></svg>