<?xml version="1.0" encoding="UTF-8"?><svg id="forms-1" xmlns="http://www.w3.org/2000/svg" viewBox="0 0 165 165"><defs><style>.cls-1{stroke-dasharray:0 5;stroke-linecap:round;stroke-linejoin:round;}.cls-1,.cls-2{fill:none;stroke:#000;stroke-width:2px;}.cls-2{stroke-miterlimit:10;}</style></defs><path id="L-N-4" class="cls-2" d="M135.56,9.83c18.02,2.91,25.86,45.97,25.84,72.68-.01,27.25-8.22,69.97-25.84,72.68-16.01,2.46-37.53-28.45-53.06-74.23C97.69,36.71,119.55,7.25,135.56,9.83Z"/><path id="L-N-1" class="cls-2" d="M29.44,9.83C11.42,12.74,3.58,55.8,3.6,82.51c.01,27.25,8.22,69.97,25.84,72.68,16.01,2.46,37.53-28.45,53.06-74.23C67.31,36.71,45.45,7.25,29.44,9.83Z"/><ellipse id="L-N-2" class="cls-2" cx="69.97" cy="82.5" rx="12.53" ry="72.83"/><ellipse id="L-N-3" class="cls-2" cx="95.03" cy="82.5" rx="12.53" ry="72.83"/><line id="L" class="cls-2" x1="82.5" y1="9.67" x2="82.5" y2="155.33"/><ellipse id="L-P-1" class="cls-1" cx="57.14" cy="82.5" rx="25.36" ry="72.83"/><ellipse id="L-P-2" class="cls-1" cx="107.86" cy="82.5" rx="25.36" ry="72.83"/><circle id="Point" cx="82.5" cy="82.5" r="18.01"/></svg>