<?xml version="1.0" encoding="UTF-8"?>
<svg id="BBF-Imagotipo" xmlns="http://www.w3.org/2000/svg" version="1.1" viewBox="0 0 200 200">
  <!-- Generator: Adobe Illustrator 30.2.1, SVG Export Plug-In . SVG Version: 2.1.1 Build 1)  -->
  <defs>
    <style>
      .st0 {
        fill: #ff5949;
      }
    </style>
  </defs>
  <path class="st0" d="M193,129.1c0,12.1-9.8,21.8-21.8,21.9v.4h-1.4c-4.2-.3-8.1-1.7-11.4-4-.2-.2-.5-.4-.8-.6-.2-.2-.4-.3-.6-.5-.3-.2-.5-.4-.8-.7-3.3-3.1-5.7-7.1-6.6-11.8-1-4.1-1-8-3.7-11.4-1-1.2-1.9-1.9-2.6-2.3-.6-.4-2.7-1.6-5.5-1.4-2.2,0-3.7.9-4,1.1-3.4,1.9-4.3,5.5-4.5,6.6,0,.1-.2.8-.2,1.5-.2,4.8,4.2,9.6,7.5,13.8,2.8,3.6,4.4,6.3,6.6,9.8.6,1,5.4,9.1,6,15.4.1,1.4.1,2.8.1,2.8h-.1c-.3,11.9-10,21.4-21.9,21.4s-21.9-9.8-21.9-21.9,0-.7,0-1.1c-.4-16.9,15.5-22.6,12.6-34.9v-.4c-1.9-8-10.1-11.8-14.3-23.1-.5-1.3-.8-2.7-1.1-4-.5-1.8-.8-3.8-.8-5.8s.2-3.5.6-5.1c.1-.7.3-1.4.5-2.2,3.1-11.2,13.4-17.2,15.2-26.3,2.4-12.1-12.8-16.5-12.6-33.7,0-.6,0-1.3,0-2,0-12.1,9.8-21.9,21.9-21.9s21.9,9.8,21.9,21.9h.1s0,1.4-.1,2.8c-.6,6.4-5.4,14.4-6,15.4-2.1,3.5-3.8,6.3-6.6,9.8-3.3,4.2-7.7,9-7.5,13.8,0,.7.2,1.4.2,1.5.2,1.1,1.1,4.5,4.2,6.4.3.2.6.3,1,.5.7.3,1.9.7,3.3.8,2.8,0,4.9-1.1,5.5-1.4.6-.4,1.6-1.1,2.6-2.3,2.7-3.3,2.7-7.2,3.7-11.4,0,0,0,0,0,0,.1-.5.2-1,.4-1.5,0,0,0,0,0-.1,2.6-9.2,11-15.9,21.1-15.9s21.9,9.8,21.9,21.9-9.8,21.8-21.8,21.9h0c0,0-1.8,0-1.8,0-1.1,0-2.2-.3-3.2-.5-7-1.3-11.1-2.1-14.9-.4-1.8.8-2.8,1.7-3.1,2.1-2.5,2.6-2.6,5.9-2.6,6.2s0,3.5,2.4,6c2,2.2,4.6,2.8,6.2,3.1,2.3.4,4.9,0,9.3-.8,2.4-.9,4.9-1.3,7.6-1.3,12.1,0,21.9,9.8,21.9,21.9h0ZM97.6,94.9c-.1-.7-.3-1.4-.5-2.2-3.1-11.2-13.4-17.2-15.2-26.3-2.4-12.1,12.8-16.5,12.6-33.7,0-.6,0-1.3,0-1.9,0-12.1-9.8-21.9-21.9-21.9s-21.8,9.8-21.9,21.8h0s0,1.4,0,2.8c.6,6.4,5.4,14.4,6,15.4,2.1,3.5,3.8,6.3,6.5,9.8,3.3,4.2,7.7,9,7.5,13.8,0,.7-.2,1.4-.2,1.5-.2,1.1-1.2,4.7-4.5,6.6-.3.2-1.8,1-4,1.1-2.8,0-4.9-1.1-5.5-1.4-.7-.4-1.6-1.1-2.6-2.3-2.4-2.9-2.7-6.3-3.4-10-.8-6-4-11.2-8.7-14.7,0,0,0,0,0,0-.8-.6-1.7-1.1-2.6-1.6-2.7-1.5-5.8-2.5-9.2-2.6h-1.4c-12,.1-21.7,9.9-21.7,21.9s9.7,21.8,21.7,21.9h1.8c1.1,0,2.2-.3,3.2-.5,7-1.3,11-2.1,14.9-.4,1.8.8,2.8,1.7,3.1,2.1,2.5,2.6,2.5,5.9,2.5,6.2s0,3.5-2.4,6c-2,2.2-4.7,2.8-6.2,3.1-2.3.4-4.9,0-9.5-.8-2.2-.8-4.7-1.2-7.2-1.2-12.1,0-21.9,9.8-21.9,21.9s9.6,21.7,21.6,21.9v.3h1.4c4.2-.3,8.1-1.7,11.4-4,.2-.2.5-.4.8-.6.2-.2.4-.3.6-.5.3-.2.5-.4.8-.7,1.8-1.6,3.2-3.5,4.4-5.7,1.4-2.5,2.3-5.3,2.7-8.4.6-3.3,1-6.4,3.2-9.2,1-1.2,2-1.9,2.6-2.3s2.7-1.6,5.5-1.4c2.2,0,3.7.9,4,1.1,3.4,1.9,4.3,5.5,4.5,6.6,0,0,.2.8.2,1.5.2,4.8-4.2,9.6-7.5,13.8-2.8,3.6-4.4,6.3-6.5,9.8-.6,1-5.4,9.1-6,15.4,0,1.4,0,2.8,0,2.8h.2c.2,11.9,9.9,21.5,21.9,21.5s21.9-9.8,21.9-21.9,0-1.6-.1-2.4c-.4-15.9-15.4-21.7-12.6-33.7v-.4c2-8,10.2-11.8,14.4-23.1.5-1.3.8-2.7,1.1-4,.5-1.8.8-3.8.8-5.8s-.2-3.5-.6-5.1h0Z"/>
</svg>