<?xml version="1.0" encoding="UTF-8"?>
<svg id="BBF-Imagotipo" xmlns="http://www.w3.org/2000/svg" version="1.1" viewBox="0 0 200 200">
  <!-- Generator: Adobe Illustrator 30.1.0, SVG Export Plug-In . SVG Version: 2.1.1 Build 136)  -->
  <defs>
    <style>
      .st0 {
        fill: #255ff1;
      }
    </style>
  </defs>
  <g id="BBF-Icon">
    <g id="BBF-Icon-D">
      <path id="BBF-Icon-D-L" class="st0" d="M118,132.8c-1.9-8-10.1-11.8-14.3-23.1-1.2-3.3-1.8-6.5-1.8-9.7,0-.2,0-1,.1-2.1,0,0,0-.1,0-.2.1-1.3.4-3.1.9-5,3.1-11.2,13.4-17.2,15.2-26.3,2.4-12.3-13.3-16.6-12.6-34.5,0,0,0-.2,0-.3,0-.3,0-.6,0-.9h43.8s0,1.4-.1,2.8c-.6,6.4-5.4,14.4-6,15.4-2.1,3.5-3.8,6.3-6.6,9.8-3.3,4.2-7.7,9-7.5,13.8,0,.7.2,1.4.2,1.5.2,1.1,1.2,4.7,4.5,6.6.3.2,1.9,1,4,1.1,2.8.1,4.9-1.1,5.5-1.4.6-.4,1.6-1.1,2.6-2.3,2.7-3.3,2.7-7.2,3.7-11.4.9-4.6,3.3-8.7,6.6-11.8.2-.2.5-.5.8-.7.2-.2.4-.3.6-.5.2-.2.5-.4.8-.6,3.2-2.3,7.1-3.8,11.4-4,.7,0,1.2,0,1.4,0v43.8c-.7,0-1.2,0-1.8,0-1.1,0-2.2-.3-3.2-.5-7-1.3-11.1-2.1-14.9-.4-1.8.8-2.8,1.7-3.1,2.1-2.5,2.6-2.6,5.9-2.6,6.2s0,3.5,2.4,6c2,2.2,4.6,2.8,6.2,3.1,2.7.5,5.8-.2,12-1.2,1.2-.3,2.4-.4,3.6-.5.5,0,.9,0,1.4,0v43.8c-.2,0-.7,0-1.4,0-4.2-.3-8.1-1.7-11.4-4-.2-.2-.5-.4-.8-.6-.2-.2-.4-.3-.6-.5-.3-.2-.5-.4-.8-.7-3.3-3.1-5.7-7.1-6.6-11.8-1-4.1-1-8-3.7-11.4-1-1.2-1.9-1.9-2.6-2.3-.6-.4-2.7-1.6-5.5-1.4-2.2,0-3.7.9-4,1.1-3.4,1.9-4.3,5.5-4.5,6.6,0,.1-.2.8-.2,1.5-.2,4.8,4.2,9.6,7.5,13.8,2.8,3.6,4.4,6.3,6.6,9.8.6,1,5.4,9.1,6,15.4.1,1.4.1,2.8.1,2.8h-43.8c-1.4-18.1,15.5-23.8,12.5-36.5h0Z"/>
      <path id="BBF-Icon-D-C" class="st0" d="M123.7,121.9h0c-12.1,0-21.9-9.8-21.9-21.9h0c0-12.1,9.8-21.9,21.9-21.9h0c12.1,0,21.9,9.8,21.9,21.9h0c0,12.1-9.8,21.9-21.9,21.9Z"/>
      <path id="BBF-Icon-D-C4" class="st0" d="M127.3,52.6h0c-12.1,0-21.9-9.8-21.9-21.9h0c0-12.1,9.8-21.9,21.9-21.9h0c12.1,0,21.9,9.8,21.9,21.9h0c0,12.1-9.8,21.9-21.9,21.9Z"/>
      <path id="BBF-Icon-D-C3" class="st0" d="M171.1,92.7h0c-12.1,0-21.9-9.8-21.9-21.9h0c0-12.1,9.8-21.9,21.9-21.9h0c12.1,0,21.9,9.8,21.9,21.9h0c0,12.1-9.8,21.9-21.9,21.9Z"/>
      <path id="BBF-Icon-D-C2" class="st0" d="M171.1,151h0c-12.1,0-21.9-9.8-21.9-21.9h0c0-12.1,9.8-21.9,21.9-21.9h0c12.1,0,21.9,9.8,21.9,21.9h0c0,12.1-9.8,21.9-21.9,21.9Z"/>
      <path id="BBF-Icon-D-C1" class="st0" d="M127.3,191.1h0c-12.1,0-21.9-9.8-21.9-21.9h0c0-12.1,9.8-21.9,21.9-21.9h0c12.1,0,21.9,9.8,21.9,21.9h0c0,12.1-9.8,21.9-21.9,21.9Z"/>
    </g>
    <g id="BBF-Icon-I">
      <path id="BBF-Icon-I-L" class="st0" d="M82,132.8c1.9-8,10.1-11.8,14.3-23.1,1.2-3.3,1.8-6.5,1.8-9.7,0-.2,0-1-.1-2.1,0,0,0-.1,0-.2-.1-1.3-.4-3.1-.9-5-3.1-11.2-13.4-17.2-15.2-26.3-2.4-12.3,13.3-16.6,12.6-34.5,0,0,0-.2,0-.3,0-.3,0-.6,0-.9h-43.8s0,1.4.1,2.8c.6,6.4,5.4,14.4,6,15.4,2.1,3.5,3.8,6.3,6.5,9.8,3.3,4.2,7.7,9,7.5,13.8,0,.7-.2,1.4-.2,1.5-.2,1.1-1.2,4.7-4.5,6.6-.3.2-1.8,1-4,1.1-2.8.1-4.9-1.1-5.5-1.4-.7-.4-1.6-1.1-2.6-2.3-2.7-3.3-2.7-7.2-3.7-11.4-.9-4.6-3.3-8.7-6.6-11.8-.2-.2-.5-.5-.8-.7-.2-.2-.4-.3-.6-.5-.2-.2-.5-.4-.8-.6-3.2-2.3-7.1-3.8-11.4-4-.7,0-1.2,0-1.4,0v43.8c.7,0,1.2,0,1.8,0,1.1,0,2.2-.3,3.2-.5,7-1.3,11-2.1,14.9-.4,1.8.8,2.8,1.7,3.1,2.1,2.5,2.6,2.5,5.9,2.5,6.2s0,3.5-2.4,6c-2,2.2-4.7,2.8-6.2,3.1-2.7.5-5.8-.2-12-1.2-1.2-.3-2.4-.4-3.6-.5-.5,0-.9,0-1.4,0v43.8c.2,0,.7,0,1.4,0,4.2-.3,8.1-1.7,11.4-4,.2-.2.5-.4.8-.6.2-.2.4-.3.6-.5.3-.2.5-.4.8-.7,3.3-3.1,5.7-7.1,6.6-11.8,1-4.1,1-8,3.7-11.4,1-1.2,2-1.9,2.6-2.3.6-.4,2.7-1.6,5.5-1.4,2.2,0,3.7.9,4,1.1,3.4,1.9,4.3,5.5,4.5,6.6,0,.1.2.8.2,1.5.2,4.8-4.2,9.6-7.5,13.8-2.8,3.6-4.4,6.3-6.5,9.8-.6,1-5.4,9.1-6,15.4-.1,1.4-.1,2.8-.1,2.8h43.8c1.4-18.1-15.5-23.8-12.5-36.5h0Z"/>
      <path id="BBF-Icon-I-C" class="st0" d="M76.3,78.1h0c12.1,0,21.9,9.8,21.9,21.9h0c0,12.1-9.8,21.9-21.9,21.9h0c-12.1,0-21.9-9.8-21.9-21.9h0c0-12.1,9.8-21.9,21.9-21.9Z"/>
      <path id="BBF-Icon-I-C4" class="st0" d="M72.7,8.9h0c12.1,0,21.9,9.8,21.9,21.9h0c0,12.1-9.8,21.9-21.9,21.9h0c-12.1,0-21.9-9.8-21.9-21.9h0c0-12.1,9.8-21.9,21.9-21.9Z"/>
      <path id="BBF-Icon-I-C3" class="st0" d="M28.9,49h0c12.1,0,21.9,9.8,21.9,21.9h0c0,12.1-9.8,21.9-21.9,21.9h0c-12.1,0-21.9-9.8-21.9-21.9h0c0-12.1,9.8-21.9,21.9-21.9Z"/>
      <path id="BBF-Icon-I-C2" class="st0" d="M28.9,107.3h0c12.1,0,21.9,9.8,21.9,21.9h0c0,12.1-9.8,21.9-21.9,21.9h0c-12.1,0-21.9-9.8-21.9-21.9h0c0-12.1,9.8-21.9,21.9-21.9Z"/>
      <path id="BBF-Icon-I-C1" class="st0" d="M72.7,147.4h0c12.1,0,21.9,9.8,21.9,21.9h0c0,12.1-9.8,21.9-21.9,21.9h0c-12.1,0-21.9-9.8-21.9-21.9h0c0-12.1,9.8-21.9,21.9-21.9Z"/>
    </g>
  </g>
</svg>