<?xml version="1.0" encoding="UTF-8"?><svg id="BBF-Imagotipo" xmlns="http://www.w3.org/2000/svg" viewBox="0 0 200 200"><g id="BBF-Icon"><g id="BBF-Icon-D"><path id="BBF-Icon-D-L" d="M117.96,132.76c-1.91-8-10.1-11.82-14.29-23.07-1.24-3.34-1.83-6.51-1.84-9.68,0-.17,0-.97.11-2.13,0-.05,0-.11.01-.16.12-1.34.38-3.13.9-5.01,3.09-11.15,13.42-17.19,15.22-26.35,2.41-12.32-13.27-16.6-12.56-34.51,0-.07,0-.18.01-.26,0-.29-.04-.57-.04-.86h43.75s.02,1.37-.11,2.76c-.61,6.36-5.4,14.42-6.01,15.44-2.11,3.5-3.78,6.27-6.55,9.82-3.29,4.22-7.71,9.01-7.47,13.79.04.71.17,1.37.19,1.47.23,1.11,1.17,4.67,4.53,6.57.32.18,1.85,1.02,4.02,1.12,2.84.14,4.88-1.07,5.5-1.45.65-.4,1.63-1.1,2.6-2.3,2.71-3.34,2.73-7.23,3.71-11.37.91-4.61,3.28-8.69,6.59-11.76.25-.24.5-.47.76-.69.2-.17.41-.33.62-.49.25-.2.51-.39.76-.57,3.24-2.32,7.13-3.78,11.35-4.04.72-.06,1.22-.07,1.39-.07v43.75c-.66,0-1.25-.04-1.8-.09-1.1-.09-2.16-.26-3.21-.51-6.98-1.34-11.05-2.06-14.86-.42-1.78.76-2.77,1.73-3.11,2.08-2.5,2.55-2.55,5.89-2.55,6.24,0,.43.05,3.49,2.36,6.04,2.04,2.25,4.65,2.77,6.21,3.06,2.71.51,5.78-.17,11.96-1.21,1.16-.27,2.36-.44,3.58-.52.47-.04.92-.07,1.41-.07v43.75c-.17,0-.67,0-1.39-.07-4.22-.27-8.11-1.72-11.35-4.04-.25-.18-.51-.37-.76-.57-.21-.16-.41-.32-.62-.49-.26-.22-.51-.45-.76-.69-3.31-3.08-5.68-7.15-6.59-11.76-.98-4.15-1-8.03-3.71-11.37-.98-1.2-1.95-1.91-2.6-2.3-.62-.38-2.66-1.59-5.5-1.45-2.17.1-3.71.94-4.02,1.12-3.36,1.9-4.3,5.47-4.53,6.57-.02.11-.16.76-.19,1.47-.24,4.78,4.18,9.57,7.47,13.79,2.77,3.55,4.44,6.32,6.55,9.82.62,1.03,5.4,9.08,6.01,15.44.13,1.39.11,2.76.11,2.76h-43.75c-1.4-18.14,15.51-23.84,12.49-36.52Z"/><rect id="BBF-Icon-D-C" x="101.82" y="78.12" width="43.75" height="43.75" rx="21.88" ry="21.88" transform="translate(247.4 200) rotate(180)"/><rect id="BBF-Icon-D-C4" x="105.47" y="8.85" width="43.75" height="43.75" rx="21.88" ry="21.88" transform="translate(254.69 61.45) rotate(180)"/><rect id="BBF-Icon-D-C3" x="149.22" y="48.96" width="43.75" height="43.75" rx="21.88" ry="21.88" transform="translate(342.19 141.66) rotate(180)"/><rect id="BBF-Icon-D-C2" x="149.22" y="107.29" width="43.75" height="43.75" rx="21.88" ry="21.88" transform="translate(342.19 258.34) rotate(180)"/><rect id="BBF-Icon-D-C1" x="105.47" y="147.4" width="43.75" height="43.75" rx="21.88" ry="21.88" transform="translate(254.69 338.55) rotate(180)"/></g><g id="BBF-Icon-I"><path id="BBF-Icon-I-L" d="M82.04,132.76c1.91-8,10.1-11.82,14.29-23.07,1.24-3.34,1.83-6.51,1.84-9.68,0-.17,0-.97-.11-2.13,0-.05,0-.11-.01-.16-.12-1.34-.38-3.13-.9-5.01-3.09-11.15-13.42-17.19-15.22-26.35-2.41-12.32,13.27-16.6,12.56-34.51,0-.07,0-.18-.01-.26,0-.29.04-.57.04-.86h-43.75s-.02,1.37.11,2.76c.61,6.36,5.4,14.42,6.01,15.44,2.11,3.5,3.78,6.27,6.55,9.82,3.29,4.22,7.71,9.01,7.47,13.79-.04.71-.17,1.37-.19,1.47-.23,1.11-1.17,4.67-4.53,6.57-.32.18-1.85,1.02-4.02,1.12-2.84.14-4.88-1.07-5.5-1.45-.65-.4-1.63-1.1-2.6-2.3-2.71-3.34-2.73-7.23-3.71-11.37-.91-4.61-3.28-8.69-6.59-11.76-.25-.24-.5-.47-.76-.69-.2-.17-.41-.33-.62-.49-.25-.2-.51-.39-.76-.57-3.24-2.32-7.13-3.78-11.35-4.04-.72-.06-1.22-.07-1.39-.07v43.75c.66,0,1.25-.04,1.8-.09,1.1-.09,2.16-.26,3.21-.51,6.98-1.34,11.05-2.06,14.86-.42,1.78.76,2.77,1.73,3.11,2.08,2.5,2.55,2.55,5.89,2.55,6.24,0,.43-.05,3.49-2.36,6.04-2.04,2.25-4.65,2.77-6.21,3.06-2.71.51-5.78-.17-11.96-1.21-1.16-.27-2.36-.44-3.58-.52-.47-.04-.92-.07-1.41-.07v43.75c.17,0,.67,0,1.39-.07,4.22-.27,8.11-1.72,11.35-4.04.25-.18.51-.37.76-.57.21-.16.41-.32.62-.49.26-.22.51-.45.76-.69,3.31-3.08,5.68-7.15,6.59-11.76.98-4.15,1-8.03,3.71-11.37.98-1.2,1.95-1.91,2.6-2.3.62-.38,2.66-1.59,5.5-1.45,2.17.1,3.71.94,4.02,1.12,3.36,1.9,4.3,5.47,4.53,6.57.02.11.16.76.19,1.47.24,4.78-4.18,9.57-7.47,13.79-2.77,3.55-4.44,6.32-6.55,9.82-.62,1.03-5.4,9.08-6.01,15.44-.13,1.39-.11,2.76-.11,2.76h43.75c1.4-18.14-15.51-23.84-12.49-36.52Z"/><rect id="BBF-Icon-I-C" x="54.43" y="78.12" width="43.75" height="43.75" rx="21.88" ry="21.88"/><rect id="BBF-Icon-I-C4" x="50.78" y="8.85" width="43.75" height="43.75" rx="21.88" ry="21.88"/><rect id="BBF-Icon-I-C3" x="7.03" y="48.96" width="43.75" height="43.75" rx="21.88" ry="21.88"/><rect id="BBF-Icon-I-C2" x="7.03" y="107.29" width="43.75" height="43.75" rx="21.88" ry="21.88"/><rect id="BBF-Icon-I-C1" x="50.78" y="147.4" width="43.75" height="43.75" rx="21.88" ry="21.88"/></g></g></svg>