<?xml version="1.0" encoding="UTF-8"?><svg id="logo-stamp" xmlns="http://www.w3.org/2000/svg" viewBox="0 0 216.6 217.56"><defs><style>.cls-1{fill:#131414;}</style></defs><path id="icon" d="M141.75,102.79c-1.75,1.79-1.79,4.13-1.79,4.37,0,.3.03,2.45,1.66,4.23,1.43,1.57,3.26,1.94,4.35,2.15,1.87.35,4-.11,8.2-.82,1.18-.29,2.4-.45,3.67-.45h0c8.47,0,15.33,6.86,15.33,15.33h0c0,8.47-6.86,15.33-15.33,15.33h0c-.06,0-.18,0-.36,0-7.31-.17-13.35-5.44-14.69-12.4-.68-2.88-.7-5.58-2.59-7.91-.68-.84-1.37-1.34-1.82-1.61-.44-.27-1.87-1.11-3.85-1.02-1.52.07-2.6.66-2.82.79-2.36,1.33-3.02,3.83-3.18,4.61-.01.07-.11.53-.13,1.03-.17,3.35,2.93,6.71,5.24,9.66,1.94,2.49,3.11,4.43,4.59,6.88.43.72,3.79,6.36,4.21,10.82.09.97.08,1.93.08,1.93h0c0,8.47-6.86,15.33-15.33,15.33h0c-8.47,0-15.33-6.86-15.33-15.33h0c-.98-12.71,10.86-16.7,8.75-25.59-1.34-5.61-7.08-8.28-10.02-16.17-.87-2.34-1.28-4.56-1.29-6.78,0,0,0,0,0,0h0c0-.06,0-.26.01-.54.01-.36.03-.72.07-1.07.09-.94.26-2.19.63-3.5,2.17-7.81,9.41-12.04,10.66-18.46,1.69-8.63-9.29-11.63-8.8-24.17-.01-.26-.02-.53-.02-.8h0c0-8.47,6.86-15.33,15.33-15.33h0c8.47,0,15.33,6.86,15.33,15.33h0s.01.96-.08,1.93c-.43,4.46-3.78,10.1-4.21,10.82-1.48,2.45-2.65,4.39-4.59,6.88-2.31,2.96-5.4,6.31-5.24,9.66.02.5.12.96.13,1.03.16.77.82,3.27,3.18,4.61.22.13,1.3.71,2.82.79,1.99.1,3.42-.75,3.85-1.02.46-.28,1.14-.77,1.82-1.61,1.89-2.33,1.91-5.03,2.59-7.91,1.34-6.95,7.38-12.23,14.69-12.4.17,0,.3,0,.36,0h0c8.47,0,15.33,6.86,15.33,15.33h0c0,8.47-6.86,15.33-15.33,15.33h0c-.2,0-.39,0-.57-.01-1.1-.04-2.18-.19-3.21-.46-4.73-.9-7.52-1.37-10.14-.25-1.25.53-1.94,1.21-2.18,1.45ZM106.74,106.62c-.01-.36-.03-.72-.07-1.07-.09-.94-.26-2.19-.63-3.5-2.17-7.81-9.41-12.04-10.66-18.46-1.69-8.63,9.29-11.63,8.8-24.17.01-.26.02-.53.02-.8h0c0-8.47-6.86-15.33-15.33-15.33h0c-8.47,0-15.33,6.86-15.33,15.33h0s-.01.96.08,1.93c.43,4.46,3.78,10.1,4.21,10.82,1.48,2.45,2.65,4.39,4.59,6.88,2.31,2.96,5.4,6.31,5.24,9.66-.02.5-.12.96-.13,1.03-.16.77-.82,3.27-3.18,4.61-.22.13-1.3.71-2.82.79-1.99.1-3.42-.75-3.85-1.02-.46-.28-1.14-.77-1.82-1.61-1.89-2.33-1.91-5.03-2.59-7.91-1.34-6.95-7.38-12.23-14.69-12.4-.17,0-.3,0-.36,0h0c-8.47,0-15.33,6.86-15.33,15.33h0c0,8.47,6.86,15.33,15.33,15.33h0c.2,0,.39,0,.57-.01,1.1-.04,2.18-.19,3.21-.46,4.73-.9,7.52-1.37,10.14-.25,1.25.53,1.94,1.21,2.18,1.45,1.75,1.79,1.79,4.13,1.79,4.37,0,.3-.03,2.45-1.66,4.23-1.43,1.57-3.26,1.94-4.35,2.15-1.87.35-4-.11-8.2-.82-1.18-.29-2.4-.45-3.67-.45h0c-8.47,0-15.33,6.86-15.33,15.33h0c0,8.47,6.86,15.33,15.33,15.33h0c.06,0,.18,0,.36,0,7.31-.17,13.35-5.44,14.69-12.4.68-2.88.7-5.58,2.59-7.91.68-.84,1.37-1.34,1.82-1.61.44-.27,1.87-1.11,3.85-1.02,1.52.07,2.6.66,2.82.79,2.36,1.33,3.02,3.83,3.18,4.61.01.07.11.53.13,1.03.17,3.35-2.93,6.71-5.24,9.66-1.94,2.49-3.11,4.43-4.59,6.88-.43.72-3.79,6.36-4.21,10.82-.09.97-.08,1.93-.08,1.93h0c0,8.47,6.86,15.33,15.33,15.33h0c8.47,0,15.33-6.86,15.33-15.33h0c.98-12.71-10.86-16.7-8.75-25.59,1.34-5.61,7.08-8.28,10.02-16.17.87-2.34,1.28-4.56,1.29-6.78,0,0,0,0,0,0h0c0-.06,0-.26-.01-.54Z"/><path id="circle" class="cls-1" d="M134.09,13.77l-.43,1.4-2.37-.73,4.42-14.45,2.37.73-1.69,5.53c.68-.67,2.1-1.12,3.57-.67,2.83.87,3.9,3.72,2.96,6.78-.93,3.03-3.34,4.85-6.16,3.98-1.45-.44-2.46-1.63-2.67-2.58ZM140.55,11.62c.66-2.17-.05-3.74-1.5-4.18l-.17-.05c-1.34-.41-2.98.44-3.65,2.63-.67,2.19.21,3.81,1.55,4.22l.17.05c1.45.44,2.92-.48,3.59-2.67ZM146.13,7.94l2.26.93-.87,2.1c.98-1.23,2.38-1.59,3.8-1l.68.28-.89,2.16-.86-.35c-1.74-.72-3.08-.13-3.83,1.69l-2.12,5.13-2.29-.95,4.12-9.98ZM148.76,17.44c.99-1.92,2.96-2.16,5.1-1.28l2.62,1.09.14-.27c.54-1.05.25-2.13-.82-2.69l-.15-.08c-1-.52-1.95-.28-2.39.39l-2.21-1.14c1.07-1.7,3.32-2.2,5.6-1.02,2.38,1.23,3.29,3.37,2.15,5.58l-2.14,4.14c-.39.75-.77,1.54-.99,2.16l-2.07-1.07c.08-.3.32-.85.57-1.38-.97.62-2.43.66-3.72,0-1.78-.92-2.56-2.76-1.69-4.44ZM151.77,20.28l.15.08c1.19.61,2.83.27,3.43-.9l.3-.58-2.33-.94c-.92-.38-1.88-.31-2.29.49-.35.67-.02,1.45.75,1.84ZM162.62,15.89l2.07,1.37-.87,1.31c1.12-.52,2.5-.49,3.78.35,2.12,1.41,2.28,3.48.99,5.42l-3.88,5.87-2.07-1.37,3.68-5.56c.8-1.21.73-2.28-.33-2.99l-.14-.1c-1.15-.76-2.83-.42-3.79,1.04l-3.33,5.02-2.07-1.37,5.96-9ZM168.69,26.42c2.06-2.44,5.05-3.08,7.32-1.18,1.16.97,1.57,2.36,1.39,3.31l3.7-4.39,1.9,1.6-9.74,11.56-1.9-1.6.93-1.11c-.91.34-2.43.13-3.6-.86-2.25-1.89-2.04-4.91,0-7.34ZM174.83,31.6c1.47-1.75,1.32-3.58.25-4.48l-.13-.11c-1.16-.97-2.88-.73-4.34,1-1.47,1.75-1.43,3.51-.28,4.48l.13.11c1.07.9,2.9.75,4.37-1ZM179.09,41.24l-1.1.97-1.64-1.86,11.33-10,1.64,1.86-4.34,3.83c.93-.22,2.38.15,3.39,1.3,1.96,2.22,1.37,5.21-1.02,7.32-2.38,2.1-5.38,2.39-7.34.17-1-1.13-1.24-2.68-.92-3.59ZM185.72,42.79c1.7-1.5,1.92-3.21.92-4.35l-.11-.13c-.93-1.05-2.77-1.18-4.49.33-1.72,1.51-1.82,3.36-.89,4.41l.11.13c1,1.13,2.74,1.12,4.46-.39ZM192.41,42.57l1.44,1.97-1.83,1.33c1.48-.54,2.86-.11,3.76,1.13l.43.59-1.89,1.37-.55-.75c-1.11-1.52-2.56-1.72-4.15-.56l-4.49,3.27-1.46-2.01,8.73-6.36ZM189.67,52.01c1.85-1.12,3.66-.3,5.02,1.58l1.67,2.3.26-.16c1.02-.62,1.33-1.69.7-2.72l-.09-.15c-.58-.96-1.52-1.25-2.25-.91l-1.29-2.12c1.81-.89,3.98-.14,5.31,2.06,1.39,2.29,1.04,4.59-1.08,5.88l-3.99,2.42c-.72.44-1.47.91-1.98,1.32l-1.21-1.99c.22-.21.72-.56,1.21-.88-1.15.02-2.42-.7-3.17-1.94-1.04-1.72-.75-3.69.88-4.67ZM190.75,56l.09.15c.69,1.14,2.27,1.7,3.4,1.02l.55-.34-1.5-2.02c-.59-.8-1.44-1.25-2.21-.78-.65.39-.77,1.23-.32,1.96ZM202.1,57.75l1.13,2.21-9.61,4.91-1.13-2.21,9.61-4.91ZM205.89,55.69l1.23,2.4-2.38,1.22-1.23-2.4,2.38-1.22ZM204.33,62.01l.95,2.29-1.46.6c1.23.19,2.35.99,2.94,2.4.98,2.35-.05,4.16-2.2,5.05l-6.5,2.7-.95-2.29,6.16-2.56c1.34-.56,1.89-1.48,1.4-2.66l-.07-.16c-.53-1.28-2.11-1.93-3.73-1.26l-5.56,2.31-.95-2.29,9.97-4.14ZM215.21,79.99l.78,2.94-2.02.53-.53-2.02c-.21-.81-.48-.97-1.29-.75l-1.13.3.67,2.53-1.98.52-.67-2.53-8.45,2.23-.63-2.4,8.45-2.23-.58-2.19,1.98-.52.58,2.19,1.69-.45c1.63-.43,2.71.2,3.15,1.85ZM206.52,84.84c3.24-.55,5.9,1.23,6.42,4.27.52,3.06-1.41,5.63-4.64,6.18-3.24.55-5.91-1.23-6.43-4.29-.52-3.04,1.41-5.61,4.64-6.16ZM207.88,92.82c2.24-.38,3.35-1.69,3.08-3.29l-.03-.17c-.27-1.57-1.76-2.46-3.99-2.08-2.23.38-3.34,1.71-3.08,3.29l.03.17c.27,1.6,1.76,2.46,3.99,2.08ZM206.82,96.56l6.99-.41.14,2.48-6.62.38c-1.55.09-2.31.78-2.24,1.99v.17c.08,1.29,1.42,2.36,3.19,2.26l5.93-.34.14,2.48-10.78.63-.14-2.48,1.75-.1c-1.15-.5-2.06-1.61-2.15-3.16-.14-2.48,1.47-3.76,3.8-3.9ZM214.36,108.11l-.13,2.48-1.57-.08c1.02.7,1.69,1.91,1.61,3.44-.13,2.54-1.84,3.73-4.17,3.61l-7.03-.37.13-2.48,6.66.35c1.44.08,2.34-.52,2.41-1.8v-.17c.08-1.38-1.06-2.65-2.81-2.74l-6.02-.32.13-2.48,10.78.57ZM208.37,118.65c3.15.54,5.22,2.79,4.72,5.71-.25,1.49-1.24,2.55-2.15,2.88l5.66.96-.42,2.45-14.9-2.53.42-2.45,1.43.24c-.75-.61-1.34-2.02-1.09-3.54.49-2.89,3.2-4.25,6.33-3.72ZM207.02,126.57c2.26.38,3.75-.68,3.99-2.06l.03-.17c.25-1.49-.83-2.86-3.06-3.24-2.26-.38-3.75.54-4,2.04l-.03.17c-.23,1.38.83,2.88,3.08,3.26ZM211.31,132.24l-.63,2.36-2.19-.59c1.35.81,1.88,2.16,1.48,3.64l-.19.71-2.25-.61.24-.9c.49-1.81-.27-3.07-2.17-3.58l-5.36-1.44.64-2.4,10.43,2.8ZM197.46,134.67l-1.01,2.76c-.29.79-.16,1.07.61,1.35l1.46.54,11.21-.83-.95,2.57-7.8.45,5.7,5.27-.93,2.53-7.94-7.75-2.15-.79c-1.6-.59-2.13-1.72-1.54-3.3l1.3-3.55,2.05.75ZM185.45,172.34l11.46-16.75,1.02.7-11.46,16.75-1.02-.69ZM175.59,176.67l-1-1.08,1.82-1.68,10.25,11.1-1.82,1.68-3.93-4.25c.24.93-.09,2.38-1.22,3.42-2.17,2.01-5.18,1.49-7.34-.86-2.15-2.33-2.51-5.32-.34-7.33,1.11-1.03,2.65-1.3,3.57-1ZM174.19,183.34c1.54,1.66,3.26,1.84,4.37.81l.13-.12c1.03-.95,1.12-2.8-.43-4.48-1.55-1.68-3.4-1.74-4.43-.79l-.13.12c-1.11,1.03-1.06,2.77.5,4.45ZM174.55,190.03l-1.94,1.48-1.38-1.8c.57,1.46.17,2.86-1.04,3.79l-.58.45-1.42-1.85.74-.56c1.49-1.14,1.66-2.6.46-4.16l-3.37-4.41,1.97-1.51,6.55,8.58ZM165.03,187.52c1.16,1.82.38,3.65-1.46,5.06l-2.25,1.72.16.25c.64,1,1.72,1.28,2.74.63l.15-.09c.95-.6,1.22-1.55.86-2.26l2.09-1.34c.94,1.79.24,3.98-1.93,5.36-2.26,1.44-4.57,1.15-5.9-.94l-2.51-3.93c-.45-.71-.95-1.44-1.37-1.94l1.96-1.26c.22.22.58.71.91,1.19-.04-1.15.65-2.44,1.86-3.22,1.69-1.08,3.67-.83,4.69.77ZM161.06,188.7l-.15.09c-1.13.72-1.65,2.31-.94,3.42l.35.55,1.98-1.55c.79-.61,1.21-1.47.73-2.23-.41-.64-1.24-.74-1.97-.28ZM159.41,200.28l-2.22,1.1-.7-1.41c-.11,1.24-.83,2.41-2.2,3.09-2.28,1.13-4.15.23-5.19-1.86l-3.12-6.31,2.22-1.1,2.96,5.98c.64,1.3,1.61,1.78,2.75,1.22l.15-.08c1.24-.61,1.79-2.23,1.01-3.8l-2.67-5.4,2.22-1.1,4.79,9.67ZM147.28,200.24c1.08,3.01.12,5.92-2.66,6.91-1.42.51-2.83.17-3.56-.47l1.94,5.41-2.34.84-5.09-14.23,2.34-.84.49,1.36c.16-.95,1.11-2.16,2.55-2.68,2.76-.99,5.27.7,6.34,3.69ZM139.72,202.94c.77,2.15,2.43,2.94,3.75,2.46l.16-.06c1.42-.51,2.08-2.12,1.32-4.26-.77-2.15-2.31-3-3.74-2.49l-.16.06c-1.32.47-2.1,2.13-1.33,4.28ZM128.3,201.97l-.27-1.44,2.44-.46,2.77,14.86-2.44.46-1.06-5.69c-.29.91-1.35,1.96-2.85,2.24-2.91.54-5.18-1.5-5.76-4.64-.58-3.12.71-5.84,3.62-6.38,1.49-.28,2.93.31,3.56,1.05ZM123.57,206.87c.42,2.23,1.78,3.29,3.26,3.02l.17-.03c1.38-.26,2.44-1.77,2.02-4.02s-1.95-3.28-3.33-3.03l-.17.03c-1.49.28-2.37,1.78-1.95,4.03ZM120.31,212.72l-2.43.22-.2-2.26c-.29,1.54-1.38,2.51-2.9,2.65l-.73.07-.21-2.32.92-.08c1.87-.17,2.79-1.31,2.61-3.27l-.5-5.53,2.47-.22.97,10.75ZM113.58,205.47c.04,2.16-1.59,3.31-3.89,3.54l-2.82.28v.3c.02,1.19.79,2,2,1.98h.17c1.12-.02,1.85-.68,1.92-1.48l2.48-.04c-.14,2.01-1.89,3.51-4.46,3.55-2.68.04-4.49-1.42-4.53-3.9l-.08-4.66c-.01-.84-.05-1.73-.15-2.37l2.33-.04c.07.3.12.91.15,1.49.57-1,1.83-1.74,3.27-1.76,2.01-.03,3.56,1.22,3.59,3.12ZM109.59,204.39h-.17c-1.34.02-2.62,1.1-2.6,2.42v.65s2.51-.28,2.51-.28c.99-.1,1.8-.61,1.79-1.52-.01-.75-.67-1.28-1.53-1.27ZM102.12,217.56l-2.69-.17.17-2.67,2.69.18-.17,2.67ZM102.3,213.25l-2.48-.16.7-10.77,2.48.16-.7,10.77ZM97.54,212.99l-2.46-.35.22-1.56c-.79.96-2.05,1.52-3.57,1.3-2.52-.36-3.55-2.17-3.22-4.48l1-6.97,2.46.35-.95,6.61c-.21,1.43.31,2.38,1.57,2.56l.17.03c1.37.2,2.74-.83,2.99-2.56l.86-5.96,2.46.35-1.53,10.69ZM76.51,213.16l-2.93-.84.58-2.01,2.01.58c.81.23,1.08.08,1.31-.73l.32-1.12-2.51-.72.56-1.97,2.51.72,2.4-8.41,2.39.68-2.4,8.41,2.18.62-.56,1.97-2.18-.62-.48,1.68c-.46,1.62-1.56,2.23-3.2,1.76ZM76.76,203.2c-1.18,3.06-4.07,4.45-6.95,3.34-2.9-1.12-4.12-4.08-2.94-7.14,1.18-3.06,4.07-4.45,6.97-3.33,2.88,1.11,4.1,4.07,2.92,7.14ZM69.21,200.29c-.81,2.12-.26,3.74,1.25,4.32l.16.06c1.49.57,3.01-.25,3.82-2.37.81-2.12.24-3.75-1.25-4.32l-.16-.06c-1.51-.58-3.01.25-3.82,2.37ZM66.55,197.46l-3.23,6.2-2.2-1.15,3.06-5.88c.72-1.38.51-2.39-.56-2.94l-.15-.08c-1.15-.6-2.75,0-3.57,1.57l-2.74,5.27-2.2-1.15,4.98-9.58,2.2,1.15-.81,1.55c1.02-.74,2.44-.95,3.82-.23,2.2,1.15,2.48,3.19,1.4,5.26ZM52.79,198.04l-2.06-1.38.88-1.31c-1.13.52-2.5.48-3.78-.38-2.11-1.42-2.26-3.49-.96-5.43l3.92-5.84,2.06,1.38-3.72,5.54c-.81,1.2-.75,2.28.31,2.99l.14.1c1.15.77,2.82.44,3.8-1.01l3.36-5,2.06,1.38-6.02,8.96ZM46.8,187.47c-2.08,2.43-5.07,3.05-7.32,1.13-1.15-.98-1.55-2.37-1.36-3.32l-3.73,4.37-1.89-1.61,9.82-11.49,1.89,1.61-.94,1.1c.91-.33,2.43-.11,3.59.88,2.23,1.91,2.01,4.93-.05,7.34ZM40.7,182.26c-1.49,1.74-1.34,3.57-.28,4.48l.13.11c1.15.98,2.88.75,4.35-.97,1.49-1.74,1.46-3.5.31-4.48l-.13-.11c-1.07-.91-2.89-.77-4.38.97ZM33.63,183.03l-1.7-1.75,1.63-1.58c-1.38.74-2.82.51-3.88-.59l-.51-.53,1.67-1.62.65.67c1.31,1.35,2.78,1.34,4.18-.03l3.98-3.87,1.73,1.78-7.74,7.52ZM38.63,169.88l-1.85-2.28c-.53-.65-.83-.69-1.47-.17l-1.21.98-5.02,10.06-1.73-2.13,3.61-6.93-7.45,2.21-1.7-2.1,10.72-2.86,1.78-1.44c1.33-1.08,2.57-.95,3.63.36l2.38,2.93-1.69,1.38ZM12.38,140.3l8.54,18.41-1.12.52-8.54-18.41,1.12-.52ZM13.7,129.59l1.44-.3.51,2.43-14.79,3.11-.51-2.43,5.66-1.19c-.92-.27-2-1.3-2.31-2.8-.61-2.9,1.38-5.21,4.5-5.87,3.11-.65,5.86.58,6.47,3.47.31,1.48-.24,2.94-.97,3.58ZM8.7,124.97c-2.22.47-3.25,1.85-2.94,3.33l.04.17c.29,1.37,1.83,2.4,4.07,1.93s3.24-2.03,2.95-3.4l-.04-.17c-.31-1.48-1.84-2.33-4.08-1.86ZM2.78,121.88l-.28-2.42,2.25-.26c-1.55-.26-2.54-1.32-2.71-2.84l-.08-.73,2.32-.26.11.92c.21,1.87,1.38,2.75,3.33,2.53l5.51-.63.28,2.47-10.73,1.22ZM9.83,114.98c-2.16.06-3.33-1.54-3.59-3.84l-.32-2.82h-.3c-1.19.04-1.98.82-1.95,2.03v.17c.04,1.12.71,1.84,1.51,1.9l.07,2.48c-2.01-.11-3.53-1.84-3.61-4.41-.08-2.68,1.36-4.51,3.84-4.58l4.66-.14c.84-.02,1.73-.07,2.37-.18l.07,2.33c-.3.07-.9.13-1.48.17,1.01.55,1.76,1.81,1.8,3.25.06,2.01-1.17,3.58-3.07,3.63ZM10.85,110.98v-.17c-.04-1.34-1.14-2.6-2.46-2.56l-.65.02.31,2.5c.12.99.64,1.8,1.54,1.77.75-.02,1.28-.69,1.25-1.55ZM1.75,103.63l.19-2.48,1.57.12c-1-.73-1.65-1.95-1.53-3.48.2-2.54,1.93-3.68,4.26-3.5l7.02.54-.19,2.48-6.65-.51c-1.44-.11-2.35.47-2.45,1.74v.17c-.12,1.38.99,2.68,2.74,2.81l6.01.46-.19,2.48-10.76-.83ZM8,93.23c-3.14-.61-5.15-2.92-4.58-5.82.29-1.48,1.3-2.52,2.22-2.82l-5.64-1.1.48-2.44,14.84,2.9-.48,2.44-1.42-.28c.74.63,1.29,2.06,1,3.56-.56,2.88-3.3,4.17-6.42,3.57ZM9.54,85.35c-2.25-.44-3.77.59-4.04,1.96l-.03.17c-.29,1.48.76,2.88,2.98,3.31,2.25.44,3.76-.45,4.05-1.94l.03-.17c.27-1.38-.75-2.9-3-3.34ZM16.21,76.03l1.38.51-.86,2.33-14.18-5.22.86-2.33,5.43,2c-.63-.72-1-2.16-.47-3.6,1.02-2.78,3.93-3.68,6.93-2.58,2.98,1.1,4.66,3.6,3.63,6.38-.52,1.42-1.77,2.36-2.72,2.52ZM14.42,69.45c-2.13-.78-3.74-.16-4.26,1.26l-.06.16c-.48,1.32.28,3,2.42,3.79,2.15.79,3.82,0,4.3-1.31l.06-.16c.52-1.42-.32-2.95-2.47-3.74ZM11.05,63.69l1.05-2.2,2.04.98c-1.18-1.04-1.45-2.47-.79-3.85l.32-.66,2.1,1.01-.4.84c-.81,1.69-.29,3.07,1.48,3.91l5,2.4-1.07,2.24-9.73-4.66ZM20.68,61.58c-1.86-1.09-2-3.08-1-5.17l1.23-2.56-.26-.15c-1.02-.6-2.11-.37-2.73.68l-.09.15c-.57.97-.38,1.93.26,2.41l-1.26,2.14c-1.64-1.17-2.01-3.44-.71-5.65,1.36-2.31,3.55-3.1,5.69-1.84l4.02,2.36c.73.43,1.5.86,2.1,1.11l-1.18,2.01c-.29-.1-.84-.37-1.35-.64.56,1.01.53,2.47-.2,3.71-1.02,1.73-2.89,2.41-4.53,1.44ZM23.68,58.74l.09-.15c.68-1.15.42-2.81-.71-3.47l-.56-.33-1.06,2.28c-.43.9-.42,1.86.37,2.32.65.38,1.45.1,1.88-.65ZM16.22,45.55l1.53-2.22,2.2,1.52-1.53,2.22-2.21-1.52ZM19.83,47.92l1.41-2.04,8.89,6.13-1.41,2.04-8.89-6.13ZM22.51,43.95l1.57-1.93,1.22.99c-.41-1.17-.25-2.54.72-3.73,1.61-1.98,3.68-1.93,5.5-.46l5.47,4.44-1.57,1.93-5.18-4.21c-1.12-.91-2.2-.95-3.01.04l-.11.13c-.87,1.07-.69,2.77.66,3.88l4.68,3.8-1.56,1.93-8.38-6.81ZM33.14,25.85l2.22-2.08,1.43,1.53-1.53,1.43c-.61.58-.62.88-.05,1.5l.8.85,1.9-1.79,1.41,1.49-1.9,1.79,5.99,6.37-1.81,1.7-5.99-6.37-1.65,1.55-1.4-1.49,1.65-1.55-1.2-1.27c-1.15-1.23-1.11-2.48.13-3.65ZM41.55,31.17c-2.03-2.58-1.74-5.77.69-7.68,2.44-1.92,5.62-1.45,7.65,1.13,2.03,2.58,1.74,5.77-.7,7.7-2.43,1.91-5.6,1.44-7.63-1.14ZM47.92,26.16c-1.4-1.78-3.08-2.14-4.35-1.13l-.14.11c-1.26.99-1.32,2.72.08,4.5,1.4,1.78,3.1,2.12,4.35,1.13l.14-.11c1.27-1,1.32-2.72-.08-4.5ZM51.72,25.31l-3.69-5.94,2.11-1.31,3.5,5.63c.82,1.32,1.79,1.66,2.82,1.02l.15-.09c1.1-.68,1.4-2.37.47-3.87l-3.13-5.04,2.11-1.31,5.69,9.17-2.11,1.31-.92-1.49c.12,1.25-.43,2.58-1.75,3.4-2.11,1.31-4.01.5-5.24-1.48ZM58.26,13.17l2.24-1.06.67,1.42c.13-1.23.87-2.4,2.26-3.05,2.3-1.09,4.16-.15,5.16,1.95l3.01,6.36-2.24,1.06-2.86-6.03c-.62-1.31-1.58-1.81-2.73-1.27l-.16.07c-1.25.59-1.82,2.2-1.08,3.78l2.58,5.45-2.24,1.06-4.62-9.76ZM70.37,13.44c-1.03-3.03-.02-5.92,2.78-6.87,1.43-.48,2.83-.12,3.55.53l-1.84-5.44,2.35-.8,4.85,14.31-2.35.8-.46-1.37c-.18.95-1.14,2.14-2.59,2.63-2.78.94-5.26-.79-6.28-3.8ZM77.98,10.86c-.73-2.17-2.38-2.98-3.71-2.53l-.16.06c-1.43.49-2.12,2.09-1.39,4.23.73,2.17,2.26,3.04,3.69,2.56l.16-.06c1.33-.45,2.14-2.09,1.41-4.26ZM80.98,4.38l2.37-.56.52,2.21c.07-1.57,1.01-2.68,2.5-3.03l.71-.17.54,2.27-.9.21c-1.83.43-2.57,1.69-2.12,3.61l1.27,5.4-2.42.57-2.48-10.51ZM89.67,15.43l2.91-.42c.83-.12,1.02-.36.9-1.18l-.22-1.54-6.05-9.47,2.71-.39,4.1,6.66,1.93-7.52,2.67-.38-3.05,10.67.33,2.27c.24,1.69-.51,2.69-2.18,2.93l-3.74.54-.31-2.16ZM124.9,7.37l-20.25-1.34.08-1.23,20.25,1.34-.08,1.23Z"/></svg>